<?xml version="1.0" standalone="no"?>
<!DOCTYPE svg PUBLIC "-//W3C//DTD SVG 20010904//EN"
 "http://www.w3.org/TR/2001/REC-SVG-20010904/DTD/svg10.dtd">
<svg version="1.0" xmlns="http://www.w3.org/2000/svg"
 width="394.000000pt" height="221.000000pt" viewBox="0 0 394.000000 221.000000"
 preserveAspectRatio="xMidYMid meet">

<g transform="translate(0.000000,221.000000) scale(0.100000,-0.100000)"
fill="#000000" stroke="none">
<path d="M130 1196 l0 -895 156 -3 c86 -2 158 -1 160 1 2 2 4 161 4 353 l0
348 440 0 440 0 0 -350 0 -349 156 -3 c98 -2 158 1 160 7 2 6 3 408 2 895 l-3
885 -157 3 -158 3 -2 -403 -3 -403 -435 0 -435 0 -5 400 -5 400 -157 3 -158 3
0 -895z"/>
<path d="M2400 1197 c0 -492 2 -896 4 -898 2 -2 266 -3 585 -1 l581 2 0 145 0
145 -425 0 -425 0 0 750 0 750 -160 0 -160 0 0 -893z"/>
<path d="M1696 2042 c-2 -4 -2 -13 2 -19 8 -11 236 -163 246 -163 36 0 -86 97
-231 183 -6 4 -14 4 -17 -1z"/>
<path d="M2770 2036 c0 -14 221 -166 240 -166 29 0 -2 28 -110 100 -66 44
-122 80 -125 80 -3 0 -5 -6 -5 -14z"/>
<path d="M500 2002 c0 -14 32 -41 116 -96 64 -42 120 -76 125 -76 30 0 -4 36
-88 92 -170 112 -153 103 -153 80z"/>
<path d="M1697 1963 c-15 -14 -3 -26 113 -103 122 -82 140 -90 140 -67 0 12
-68 61 -221 160 -14 10 -29 14 -32 10z"/>
<path d="M2770 1953 c0 -18 237 -179 247 -169 15 14 -17 43 -122 111 -63 41
-117 75 -120 75 -3 0 -5 -8 -5 -17z"/>
<path d="M496 1922 c-9 -15 15 -37 126 -111 102 -67 128 -81 128 -63 0 16 -19
31 -120 97 -58 37 -110 72 -117 77 -6 5 -14 5 -17 0z"/>
<path d="M2770 1863 c0 -12 41 -45 118 -95 65 -43 121 -78 125 -78 4 0 7 7 7
15 0 12 -161 128 -227 164 -20 10 -23 9 -23 -6z"/>
<path d="M1697 1854 c6 -17 223 -164 242 -164 30 0 -2 30 -109 103 -114 77
-145 91 -133 61z"/>
<path d="M500 1816 c0 -16 237 -182 247 -172 14 14 -14 40 -112 106 -122 82
-135 88 -135 66z"/>
<path d="M2766 1782 c-9 -16 17 -38 122 -107 121 -78 132 -83 132 -62 0 9 -49
48 -112 90 -145 94 -136 89 -142 79z"/>
<path d="M1700 1765 c0 -15 238 -180 247 -171 14 14 -15 40 -120 110 -63 42
-118 76 -121 76 -3 0 -6 -7 -6 -15z"/>
<path d="M500 1723 c1 -12 44 -46 121 -96 115 -75 138 -85 126 -55 -4 12 -229
168 -241 168 -3 0 -6 -8 -6 -17z"/>
<path d="M2770 1681 c0 -14 35 -42 115 -95 64 -42 120 -76 125 -76 24 0 6 30
-32 55 -183 121 -208 135 -208 116z"/>
<path d="M1696 1682 c-8 -14 7 -27 117 -101 124 -83 137 -89 137 -67 0 13
-226 176 -244 176 -3 0 -7 -4 -10 -8z"/>
<path d="M500 1633 c0 -12 43 -46 118 -95 65 -43 121 -78 125 -78 4 0 7 7 7
15 0 12 -228 175 -245 175 -3 0 -5 -8 -5 -17z"/>
<path d="M2770 1590 c0 -15 31 -41 114 -95 62 -41 119 -75 125 -75 33 0 -3 34
-114 108 -105 69 -125 79 -125 62z"/>
<path d="M1697 1593 c-3 -5 -2 -14 2 -21 8 -13 232 -162 243 -162 5 0 8 6 8
14 0 8 -53 49 -117 92 -135 91 -130 88 -136 77z"/>
<path d="M500 1542 c0 -14 32 -41 116 -96 64 -42 120 -76 125 -76 30 0 -4 36
-88 92 -170 112 -153 103 -153 80z"/>
<path d="M1697 1503 c-15 -14 -3 -26 113 -103 122 -82 140 -90 140 -67 0 12
-68 61 -221 160 -14 10 -29 14 -32 10z"/>
<path d="M2767 1493 c4 -17 231 -171 243 -165 20 9 -10 37 -110 104 -120 80
-141 90 -133 61z"/>
<path d="M500 1452 c0 -26 149 -125 182 -120 19 3 7 14 -67 62 -49 33 -96 64
-102 69 -9 7 -13 4 -13 -11z"/>
<path d="M2770 1403 c0 -19 235 -181 246 -170 15 14 -10 38 -104 100 -137 89
-142 92 -142 70z"/>
<path d="M1692 1398 c7 -21 242 -177 252 -167 14 13 -6 31 -122 108 -105 69
-138 84 -130 59z"/>
<path d="M502 1353 c2 -12 14 -19 33 -21 l30 -2 -24 20 c-29 25 -44 26 -39 3z"/>
<path d="M2770 1312 c0 -14 33 -41 112 -92 129 -84 138 -88 138 -66 0 13 -115
95 -237 170 -9 5 -13 1 -13 -12z"/>
<path d="M1697 1304 c7 -18 242 -178 250 -170 14 14 -15 40 -121 110 -116 77
-140 88 -129 60z"/>
<path d="M2766 1232 c-3 -5 0 -16 7 -25 15 -19 223 -157 237 -157 32 0 -2 35
-87 90 -54 35 -110 72 -125 82 -15 10 -29 14 -32 10z"/>
<path d="M1696 1222 c-8 -14 7 -27 117 -101 124 -83 137 -89 137 -67 0 13
-226 176 -244 176 -3 0 -7 -4 -10 -8z"/>
<path d="M2770 1130 c0 -15 31 -41 114 -95 62 -41 119 -75 125 -75 33 0 -5 35
-116 109 -103 67 -123 77 -123 61z"/>
<path d="M1696 1132 c-9 -14 8 -29 117 -101 124 -83 137 -89 137 -68 0 12
-229 177 -245 177 -2 0 -6 -4 -9 -8z"/>
<path d="M1700 1033 c0 -14 33 -42 115 -96 63 -43 119 -77 125 -77 31 0 -2 35
-87 92 -169 112 -153 103 -153 81z"/>
<path d="M2760 1043 c0 -4 4 -13 8 -19 8 -12 226 -155 239 -157 4 0 9 6 11 14
1 8 -44 44 -115 89 -117 75 -143 89 -143 73z"/>
<path d="M540 954 c0 -15 206 -144 229 -144 12 0 21 3 20 8 0 4 -45 36 -100
71 -95 61 -149 84 -149 65z"/>
<path d="M680 954 c0 -15 205 -144 228 -144 12 0 22 3 21 8 0 4 -45 36 -100
71 -95 61 -149 84 -149 65z"/>
<path d="M820 954 c0 -15 206 -144 229 -144 12 0 21 3 20 8 0 4 -45 36 -100
71 -95 61 -149 84 -149 65z"/>
<path d="M960 954 c0 -15 205 -144 228 -144 12 0 22 3 21 8 0 4 -45 36 -100
71 -95 61 -149 84 -149 65z"/>
<path d="M1100 953 c0 -7 25 -24 151 -106 29 -19 29 -19 29 1 0 14 -22 34 -72
66 -66 42 -108 57 -108 39z"/>
<path d="M1240 952 c0 -4 9 -13 20 -20 18 -11 20 -10 20 8 0 13 -7 20 -20 20
-11 0 -20 -3 -20 -8z"/>
<path d="M2766 952 c-2 -4 -2 -13 2 -19 7 -11 236 -163 246 -163 3 0 6 7 6 15
0 8 -46 45 -102 83 -123 82 -145 95 -152 84z"/>
<path d="M1692 938 c2 -7 59 -50 126 -95 95 -64 124 -79 129 -67 3 8 4 16 2
18 -2 2 -56 38 -119 80 -111 74 -146 90 -138 64z"/>
<path d="M497 894 c9 -23 241 -176 248 -163 10 16 -8 31 -123 108 -109 72
-136 84 -125 55z"/>
<path d="M2770 852 c0 -14 32 -41 111 -92 129 -83 139 -88 139 -66 0 12 -125
102 -237 170 -9 5 -13 1 -13 -12z"/>
<path d="M1692 848 c5 -16 248 -182 255 -174 14 14 -15 41 -120 111 -111 73
-143 88 -135 63z"/>
<path d="M502 803 c3 -18 236 -179 245 -169 14 14 -14 40 -121 110 -63 42
-118 76 -121 76 -4 0 -5 -7 -3 -17z"/>
<path d="M2767 773 c-13 -13 11 -36 89 -88 75 -49 124 -68 124 -47 0 4 -26 23
-57 44 -32 20 -79 50 -105 66 -25 17 -49 28 -51 25z"/>
<path d="M1700 753 c0 -12 43 -46 118 -95 65 -43 121 -78 125 -78 4 0 7 7 7
15 0 12 -228 175 -245 175 -3 0 -5 -8 -5 -17z"/>
<path d="M500 713 c0 -12 43 -46 118 -95 65 -43 121 -78 125 -78 4 0 7 7 7 15
0 12 -228 175 -245 175 -3 0 -5 -8 -5 -17z"/>
<path d="M2770 670 c0 -20 27 -40 54 -40 25 0 18 13 -19 38 -34 21 -35 22 -35
2z"/>
<path d="M1696 672 c-8 -14 7 -28 116 -100 122 -83 138 -90 138 -69 0 12 -229
177 -245 177 -2 0 -6 -4 -9 -8z"/>
<path d="M500 623 c0 -13 37 -43 116 -96 64 -42 120 -77 125 -77 32 0 -7 38
-108 106 -140 94 -133 90 -133 67z"/>
<path d="M1696 582 c-9 -15 15 -37 126 -111 110 -73 128 -81 128 -58 0 12 -68
61 -222 161 -14 9 -29 13 -32 8z"/>
<path d="M500 532 c0 -13 35 -42 113 -94 128 -86 131 -87 135 -66 2 13 -66 63
-235 171 -9 5 -13 2 -13 -11z"/>
<path d="M1697 485 c-7 -17 -8 -16 131 -109 87 -58 114 -72 119 -60 3 8 4 16
2 18 -10 7 -102 69 -171 115 -56 37 -77 47 -81 36z"/>
<path d="M3620 475 c0 -7 33 -35 73 -61 182 -119 177 -116 177 -97 0 12 -42
45 -118 96 -65 42 -121 77 -125 77 -4 0 -7 -7 -7 -15z"/>
<path d="M500 435 c0 -15 219 -165 241 -165 28 0 -6 31 -111 103 -63 42 -118
77 -122 77 -4 0 -8 -7 -8 -15z"/>
<path d="M1692 388 c2 -7 59 -50 126 -95 95 -64 124 -79 129 -67 7 18 19 8
-117 98 -112 74 -146 89 -138 64z"/>
<path d="M3620 385 c0 -9 54 -51 123 -96 94 -61 123 -76 125 -63 2 9 -7 23
-20 32 -40 29 -218 142 -223 142 -3 0 -5 -7 -5 -15z"/>
<path d="M502 343 c4 -22 230 -173 242 -162 5 5 4 14 -3 23 -13 16 -225 156
-236 156 -3 0 -5 -8 -3 -17z"/>
<path d="M1690 302 c0 -14 28 -36 142 -111 59 -38 110 -66 113 -61 11 17 -5
30 -121 106 -111 72 -134 83 -134 66z"/>
<path d="M3622 294 c3 -16 219 -171 241 -173 4 -1 7 7 7 17 0 11 -37 40 -102
82 -145 93 -151 96 -146 74z"/>
<path d="M494 259 c-8 -14 -6 -16 111 -93 94 -62 135 -79 135 -56 0 8 -223
160 -235 160 -2 0 -7 -5 -11 -11z"/>
<path d="M210 246 c0 -2 49 -36 109 -75 75 -50 117 -71 133 -69 19 3 3 17 -85
76 -60 40 -120 72 -133 72 -13 0 -24 -2 -24 -4z"/>
<path d="M350 246 c0 -12 220 -146 240 -146 21 0 22 2 10 15 -33 32 -205 135
-227 135 -13 0 -23 -2 -23 -4z"/>
<path d="M1476 241 c5 -5 55 -38 111 -75 92 -59 144 -80 143 -58 -1 15 -212
142 -238 142 -15 0 -22 -4 -16 -9z"/>
<path d="M1616 241 c5 -5 56 -39 113 -75 72 -47 111 -66 129 -64 22 3 9 14
-85 76 -71 45 -122 72 -139 72 -17 0 -24 -4 -18 -9z"/>
<path d="M2550 246 c0 -2 50 -36 110 -76 72 -47 118 -70 133 -68 17 3 0 18
-85 76 -63 42 -118 72 -133 72 -14 0 -25 -2 -25 -4z"/>
<path d="M2690 246 c0 -2 49 -35 108 -75 95 -63 152 -87 152 -63 -1 14 -214
142 -237 142 -13 0 -23 -2 -23 -4z"/>
<path d="M2855 227 c81 -61 198 -128 218 -125 32 5 -182 148 -220 148 l-28 -1
30 -22z"/>
<path d="M2976 241 c5 -5 55 -38 111 -75 92 -59 144 -80 143 -58 -1 15 -212
142 -238 142 -15 0 -22 -4 -16 -9z"/>
<path d="M3116 241 c38 -36 219 -142 237 -139 31 5 -182 148 -220 148 -16 0
-23 -4 -17 -9z"/>
<path d="M3256 241 c5 -5 55 -39 112 -75 73 -48 111 -66 130 -64 22 3 8 14
-87 76 -67 43 -122 72 -138 72 -16 0 -23 -4 -17 -9z"/>
<path d="M3396 241 c5 -5 56 -39 113 -75 72 -47 111 -66 129 -64 21 3 7 15
-87 76 -67 43 -122 72 -138 72 -16 0 -23 -4 -17 -9z"/>
<path d="M3536 241 c5 -5 55 -38 112 -75 92 -59 142 -80 142 -58 -1 15 -212
142 -237 142 -16 0 -23 -4 -17 -9z"/>
</g>
</svg>
